HIERARCHY
ROOT Hips
{
	OFFSET 0.000000 100.481300 0.000000
	CHANNELS 6 Xposition Yposition Zposition Xrotation Yrotation Zrotation 
	JOINT Spine
	{
		OFFSET -0.279200 12.230698 -2.892100
		CHANNELS 3 Xrotation Yrotation Zrotation
		JOINT Spine1
		{
			OFFSET -0.232667 10.192268 -1.242267
			CHANNELS 3 Xrotation Yrotation Zrotation
			JOINT Spine1_split
			{
				OFFSET -0.232667 10.192268 -1.242267
				CHANNELS 3 Xrotation Yrotation Zrotation
				JOINT Spine2
				{
					OFFSET -0.232667 10.192268 -1.242267
					CHANNELS 3 Xrotation Yrotation Zrotation
					JOINT Neck
					{
						OFFSET -0.418800 17.814194 8.416900
						CHANNELS 3 Xrotation Yrotation Zrotation
						JOINT Head
						{
							OFFSET 0.000000 7.031097 3.806800
							CHANNELS 3 Xrotation Yrotation Zrotation
							JOINT HeadTop_End
							{
								OFFSET 0.000000 24.646606 12.978600
								CHANNELS 3 Xrotation Yrotation Zrotation
								End Site
								{
									OFFSET 0.000000 0.000000 0.000000
								}
							}
						}
					}
					JOINT LeftShoulder
					{
						OFFSET 8.476499 7.247704 -3.868750
						CHANNELS 3 Xrotation Yrotation Zrotation
						JOINT LeftShoulder_split
						{
							OFFSET 8.476499 7.247704 -3.868750
							CHANNELS 3 Xrotation Yrotation Zrotation
							JOINT LeftArm
							{
								OFFSET 9.308998 -2.777710 0.208600
								CHANNELS 3 Xrotation Yrotation Zrotation
								JOINT LeftForeArm
								{
									OFFSET 29.972298 0.000000 0.000000
									CHANNELS 3 Xrotation Yrotation Zrotation
									JOINT LeftHand
									{
										OFFSET 26.026505 0.000000 0.000000
										CHANNELS 3 Xrotation Yrotation Zrotation
										JOINT LeftHandThumb1
										{
											OFFSET 12.240501 -7.147949 9.207150
											CHANNELS 3 Xrotation Yrotation Zrotation
											JOINT LeftHandThumb2
											{
												OFFSET 4.138618 -2.389435 2.389433
												CHANNELS 3 Xrotation Yrotation Zrotation
												JOINT LeftHandThumb3
												{
													OFFSET 2.726913 -1.574387 1.574386
													CHANNELS 3 Xrotation Yrotation Zrotation
													JOINT LeftHandThumb4
													{
														OFFSET 3.941010 -2.275345 2.275342
														CHANNELS 3 Xrotation Yrotation Zrotation
														End Site
														{
															OFFSET 0.000000 0.000000 0.000000
														}
													}
												}
											}
										}
										JOINT LeftHandIndex1
										{
											OFFSET 24.424698 -1.985611 5.953459
											CHANNELS 3 Xrotation Yrotation Zrotation
											JOINT LeftHandIndex2
											{
												OFFSET 6.426697 0.000000 0.000000
												CHANNELS 3 Xrotation Yrotation Zrotation
												JOINT LeftHandIndex3
												{
													OFFSET 5.337898 0.000000 0.000000
													CHANNELS 3 Xrotation Yrotation Zrotation
													JOINT LeftHandIndex4
													{
														OFFSET 4.409401 0.000000 0.000000
														CHANNELS 3 Xrotation Yrotation Zrotation
														End Site
														{
															OFFSET 0.000000 0.000000 0.000000
														}
													}
												}
											}
										}
										JOINT LeftHandMiddle1
										{
											OFFSET 23.810104 0.000000 0.000000
											CHANNELS 3 Xrotation Yrotation Zrotation
											JOINT LeftHandMiddle2
											{
												OFFSET 7.176498 0.000000 0.000000
												CHANNELS 3 Xrotation Yrotation Zrotation
												JOINT LeftHandMiddle3
												{
													OFFSET 6.774902 0.000000 0.000000
													CHANNELS 3 Xrotation Yrotation Zrotation
													JOINT LeftHandMiddle4
													{
														OFFSET 5.403328 0.000000 0.000000
														CHANNELS 3 Xrotation Yrotation Zrotation
														End Site
														{
															OFFSET 0.000000 0.000000 0.000000
														}
													}
												}
											}
										}
										JOINT LeftHandRing1
										{
											OFFSET 22.908401 -0.839279 -6.020567
											CHANNELS 3 Xrotation Yrotation Zrotation
											JOINT LeftHandRing2
											{
												OFFSET 6.337502 0.000000 0.000000
												CHANNELS 3 Xrotation Yrotation Zrotation
												JOINT LeftHandRing3
												{
													OFFSET 5.779297 0.000000 0.000000
													CHANNELS 3 Xrotation Yrotation Zrotation
													JOINT LeftHandRing4
													{
														OFFSET 4.965698 0.000000 0.000000
														CHANNELS 3 Xrotation Yrotation Zrotation
														End Site
														{
															OFFSET 0.000000 0.000000 0.000000
														}
													}
												}
											}
										}
										JOINT LeftHandPinky1
										{
											OFFSET 20.037003 -1.530319 -10.950146
											CHANNELS 3 Xrotation Yrotation Zrotation
											JOINT LeftHandPinky2
											{
												OFFSET 5.254700 0.000000 0.000000
												CHANNELS 3 Xrotation Yrotation Zrotation
												JOINT LeftHandPinky3
												{
													OFFSET 4.810204 0.000000 0.000000
													CHANNELS 3 Xrotation Yrotation Zrotation
													JOINT LeftHandPinky4
													{
														OFFSET 3.647202 0.000000 0.000000
														CHANNELS 3 Xrotation Yrotation Zrotation
														End Site
														{
															OFFSET 0.000000 0.000000 0.000000
														}
													}
												}
											}
										}
									}
								}
							}
						}
					}
					JOINT RightShoulder
					{
						OFFSET -7.570500 7.247704 -3.868750
						CHANNELS 3 Xrotation Yrotation Zrotation
						JOINT RightShoulder_split
						{
							OFFSET -7.570500 7.247704 -3.868750
							CHANNELS 3 Xrotation Yrotation Zrotation
							JOINT RightArm
							{
								OFFSET -9.308998 -2.777710 0.208500
								CHANNELS 3 Xrotation Yrotation Zrotation
								JOINT RightForeArm
								{
									OFFSET -29.972300 0.000000 0.000000
									CHANNELS 3 Xrotation Yrotation Zrotation
									JOINT RightHand
									{
										OFFSET -26.026505 0.000000 0.000000
										CHANNELS 3 Xrotation Yrotation Zrotation
										JOINT RightHandThumb1
										{
											OFFSET -12.240601 -7.148026 9.207092
											CHANNELS 3 Xrotation Yrotation Zrotation
											JOINT RightHandThumb2
											{
												OFFSET -4.138618 -2.389435 2.389433
												CHANNELS 3 Xrotation Yrotation Zrotation
												JOINT RightHandThumb3
												{
													OFFSET -2.726974 -1.574417 1.574421
													CHANNELS 3 Xrotation Yrotation Zrotation
													JOINT RightHandThumb4
													{
														OFFSET -3.941010 -2.275345 2.275343
														CHANNELS 3 Xrotation Yrotation Zrotation
														End Site
														{
															OFFSET 0.000000 0.000000 0.000000
														}
													}
												}
											}
										}
										JOINT RightHandIndex1
										{
											OFFSET -24.424698 -1.985657 5.953444
											CHANNELS 3 Xrotation Yrotation Zrotation
											JOINT RightHandIndex2
											{
												OFFSET -6.426697 0.000000 0.000000
												CHANNELS 3 Xrotation Yrotation Zrotation
												JOINT RightHandIndex3
												{
													OFFSET -5.337898 0.000000 0.000000
													CHANNELS 3 Xrotation Yrotation Zrotation
													JOINT RightHandIndex4
													{
														OFFSET -4.409401 0.000000 0.000000
														CHANNELS 3 Xrotation Yrotation Zrotation
														End Site
														{
															OFFSET 0.000000 0.000000 0.000000
														}
													}
												}
											}
										}
										JOINT RightHandMiddle1
										{
											OFFSET -23.810097 0.000000 0.000000
											CHANNELS 3 Xrotation Yrotation Zrotation
											JOINT RightHandMiddle2
											{
												OFFSET -7.176498 0.000000 0.000000
												CHANNELS 3 Xrotation Yrotation Zrotation
												JOINT RightHandMiddle3
												{
													OFFSET -6.774902 0.000000 0.000000
													CHANNELS 3 Xrotation Yrotation Zrotation
													JOINT RightHandMiddle4
													{
														OFFSET -5.403328 0.000000 0.000000
														CHANNELS 3 Xrotation Yrotation Zrotation
														End Site
														{
															OFFSET 0.000000 0.000000 0.000000
														}
													}
												}
											}
										}
										JOINT RightHandRing1
										{
											OFFSET -22.908302 -0.839325 -6.020576
											CHANNELS 3 Xrotation Yrotation Zrotation
											JOINT RightHandRing2
											{
												OFFSET -6.337502 0.000000 0.000000
												CHANNELS 3 Xrotation Yrotation Zrotation
												JOINT RightHandRing3
												{
													OFFSET -5.779297 0.000000 0.000000
													CHANNELS 3 Xrotation Yrotation Zrotation
													JOINT RightHandRing4
													{
														OFFSET -4.965698 0.000000 0.000000
														CHANNELS 3 Xrotation Yrotation Zrotation
														End Site
														{
															OFFSET 0.000000 0.000000 0.000000
														}
													}
												}
											}
										}
										JOINT RightHandPinky1
										{
											OFFSET -20.037003 -1.530334 -10.950259
											CHANNELS 3 Xrotation Yrotation Zrotation
											JOINT RightHandPinky2
											{
												OFFSET -5.254700 0.000000 0.000000
												CHANNELS 3 Xrotation Yrotation Zrotation
												JOINT RightHandPinky3
												{
													OFFSET -4.810204 0.000000 0.000000
													CHANNELS 3 Xrotation Yrotation Zrotation
													JOINT RightHandPinky4
													{
														OFFSET -3.647202 0.000000 0.000000
														CHANNELS 3 Xrotation Yrotation Zrotation
														End Site
														{
															OFFSET 0.000000 0.000000 0.000000
														}
													}
												}
											}
										}
									}
								}
							}
						}
					}
				}
			}
		}
	}
	JOINT LeftUpLeg
	{
		OFFSET 15.427100 -6.655098 0.678600
		CHANNELS 3 Xrotation Yrotation Zrotation
		JOINT LeftLeg
		{
			OFFSET 4.081073 -39.591068 13.024000
			CHANNELS 3 Xrotation Yrotation Zrotation
			JOINT LeftFoot
			{
				OFFSET -4.081074 -37.707932 -15.979700
				CHANNELS 3 Xrotation Yrotation Zrotation
				JOINT LeftToeBase
				{
					OFFSET 5.346399 -15.068900 20.645000
					CHANNELS 3 Xrotation Yrotation Zrotation
					JOINT LeftToe_End
					{
						OFFSET 2.754700 0.931300 11.300900
						CHANNELS 3 Xrotation Yrotation Zrotation
						End Site
						{
							OFFSET 0.000000 0.000000 0.000000
						}
					}
				}
			}
		}
	}
	JOINT RightUpLeg
	{
		OFFSET -15.569500 -6.655098 0.678600
		CHANNELS 3 Xrotation Yrotation Zrotation
		JOINT RightLeg
		{
			OFFSET -4.081825 -39.591045 13.023800
			CHANNELS 3 Xrotation Yrotation Zrotation
			JOINT RightFoot
			{
				OFFSET 4.081824 -37.707954 -15.979600
				CHANNELS 3 Xrotation Yrotation Zrotation
				JOINT RightToeBase
				{
					OFFSET -5.346400 -15.068900 20.645000
					CHANNELS 3 Xrotation Yrotation Zrotation
					JOINT RightToe_End
					{
						OFFSET -2.754700 0.931300 11.300900
						CHANNELS 3 Xrotation Yrotation Zrotation
						End Site
						{
							OFFSET 0.000000 0.000000 0.000000
						}
					}
				}
			}
		}
	}
}
MOTION
Frames: 4
Frame Time: 0.016667
0.023222 91.742821 -0.011738 -2.796772 -0.889119 3.006723 -3.682538 1.963695 2.250868 1.825086 0.204638 -3.563412 0.000000 0.000000 0.000000 1.839735 0.222339 -3.555415 0.005327 -3.044289 -0.019016 5.669664 4.099741 0.112405 0.000000 0.000000 0.000000 3.264881 -13.066457 -8.920288 0.000000 0.000000 0.000000 12.299514 32.230795 -77.872243 0.000009 -37.449504 0.000032 11.318191 5.111734 -3.307915 -6.694185 7.651338 20.042529 11.568888 23.611312 -7.394402 5.302252 8.249622 -3.166208 -0.000000 0.000002 -0.000000 -0.982646 -2.594470 -15.812759 0.762399 3.154211 -27.170291 0.348192 2.165897 -18.263658 -0.000000 0.000001 -0.000001 -0.144670 0.710063 -18.764169 0.628386 2.878563 -24.623944 0.506809 2.597293 -22.079266 -0.000001 -0.000001 -0.000003 0.773678 3.364646 -19.548488 1.234020 3.938346 -34.783619 0.010678 0.384132 -3.184744 0.000001 -0.000000 0.000004 3.973832 12.688235 -18.446027 1.306902 -0.043995 -36.042724 0.763525 3.156401 -27.190734 -0.000000 0.000000 0.000000 1.454488 14.110498 8.503200 0.000000 0.000000 0.000000 54.678325 18.111652 70.211811 -0.000050 75.258767 0.000037 51.346340 35.160588 -70.815893 1.788478 4.679421 9.698160 4.637194 -8.634082 -0.225414 -7.859338 19.055191 -1.516520 -0.000001 -0.000002 -0.000001 8.183356 12.621750 -38.427935 0.272884 -1.932505 16.073503 0.241740 -1.821029 15.122725 0.000001 -0.000002 0.000001 3.398853 7.945804 -28.641153 0.564768 -2.749681 23.209755 2.103461 -0.073418 0.866154 -0.000004 0.000000 0.000001 1.368557 4.899678 -20.505913 0.144622 -1.413624 11.682868 -0.719818 -0.402317 2.985531 -0.000003 -0.000001 0.000000 -3.372270 -9.628493 -18.358799 0.125284 -1.316627 10.870645 0.090304 -1.119368 9.226155 -0.000002 0.000000 0.000000 -1.889600 -0.046839 -17.630375 18.106242 10.096479 4.425979 -17.553045 15.634264 8.031619 -7.789675 0.000007 0.000002 0.000001 -0.000000 -0.000000 -23.415642 -4.175224 0.716299 24.449758 -10.287934 -3.310010 -0.166252 -15.886678 -2.497632 -0.243006 -0.000005 -0.000000 -0.000000 0.000002 0.000000 
0.031681 91.730240 0.020864 -2.795508 -0.905058 3.038746 -3.748663 1.983501 2.264123 1.845095 0.206904 -3.577330 0.000000 0.000000 0.000000 1.859860 0.224641 -3.569078 0.009549 -3.046896 -0.006451 5.643798 4.101381 0.127782 -0.000000 -0.000000 0.000000 3.286007 -13.114652 -8.932848 0.000000 0.000000 0.000000 12.556909 32.167790 -77.897030 0.000009 -37.526787 0.000015 11.076596 5.115566 -3.368696 -6.692580 7.656141 20.048856 11.568515 23.610395 -7.394156 5.302380 8.249935 -3.166249 -0.000000 0.000001 0.000001 -0.984546 -2.600913 -15.814572 0.762401 3.154225 -27.170421 0.348200 2.165910 -18.263774 -0.000000 0.000000 -0.000001 -0.143599 0.713500 -18.767061 0.628410 2.878618 -24.624458 0.506774 2.597208 -22.078520 -0.000000 0.000000 0.000001 0.775393 3.369366 -19.550052 1.233926 3.938209 -34.782216 0.010647 0.383571 -3.180079 0.000000 -0.000000 -0.000002 3.968874 12.674939 -18.444745 1.307791 -0.042774 -36.055254 0.763507 3.156368 -27.190409 0.000000 0.000000 0.000001 1.454901 14.140045 8.517077 0.000000 0.000000 0.000000 54.746616 17.804510 70.167961 -0.000068 75.583563 0.000041 51.021295 35.499488 -69.947995 1.808284 4.619853 9.771588 4.631484 -8.617666 -0.226286 -7.965938 19.394903 -1.495137 0.000000 -0.000003 -0.000003 8.218621 12.665228 -38.428516 0.260944 -1.890582 15.715299 0.233609 -1.790673 14.864624 -0.000006 0.000001 -0.000002 3.524988 8.091283 -29.060491 0.542018 -2.696009 22.730403 2.140635 -0.046565 0.553407 -0.000000 0.000001 0.000001 1.402232 4.961687 -20.710214 0.138323 -1.382716 11.423806 -0.722481 -0.369348 2.740179 0.000003 0.000002 0.000001 -3.444547 -9.677822 -18.618945 0.124962 -1.314971 10.856912 0.089870 -1.116583 9.203017 0.000001 -0.000000 0.000001 -1.862910 -0.066787 -17.672618 18.096885 10.095708 4.420058 -17.579763 15.650217 8.043950 -7.808565 0.000007 0.000000 0.000001 0.000002 0.000000 -23.437883 -4.165161 0.689980 24.521098 -10.282828 -3.329265 -0.211994 -15.890517 -2.473841 -0.216068 -0.000007 -0.000000 -0.000000 -0.000002 -0.000000 
0.039689 91.719749 0.054914 -2.796826 -0.922808 3.067083 -3.804048 2.000675 2.280121 1.862635 0.208559 -3.596378 0.000000 0.000000 0.000000 1.877541 0.226432 -3.587914 0.016665 -3.049434 0.004050 5.628731 4.096246 0.149509 0.000000 -0.000000 -0.000000 3.318907 -13.200824 -8.955621 0.000000 0.000000 0.000000 12.731988 32.102903 -77.867517 0.000001 -37.603600 0.000013 10.795353 5.116861 -3.465663 -6.694203 7.651555 20.054308 11.567911 23.609034 -7.393722 5.302708 8.250675 -3.166454 -0.000001 0.000002 0.000001 -0.987183 -2.602663 -15.840559 0.762412 3.154236 -27.170489 0.348205 2.165908 -18.263803 0.000000 -0.000001 -0.000002 -0.146220 0.707055 -18.782518 0.628359 2.878510 -24.623467 0.506833 2.597354 -22.079790 0.000000 0.000001 0.000002 0.775204 3.367808 -19.567954 1.233926 3.938208 -34.782226 0.010626 0.383159 -3.176660 -0.000000 0.000000 0.000006 3.962190 12.657792 -18.441589 1.308458 -0.041857 -36.064642 0.763494 3.156336 -27.190155 0.000000 -0.000000 -0.000002 1.454902 14.165860 8.533177 0.000000 0.000000 0.000000 54.818712 17.557852 70.062359 -0.000067 75.912164 0.000056 50.633780 35.802971 -69.087145 1.823103 4.570006 9.855964 4.626453 -8.603847 -0.227156 -8.052918 19.681655 -1.476590 -0.000005 -0.000001 -0.000001 8.248166 12.701463 -38.429694 0.251175 -1.855539 15.416432 0.227077 -1.765865 14.653799 0.000002 -0.000003 -0.000001 3.638047 8.218632 -29.430643 0.523447 -2.651351 22.332757 2.169812 -0.024076 0.287851 -0.000003 -0.000003 0.000000 1.434012 5.019217 -20.901692 0.132907 -1.355677 11.197520 -0.725080 -0.342197 2.538155 0.000001 0.000001 0.000001 -3.501115 -9.709302 -18.829735 0.124338 -1.311675 10.829388 0.089464 -1.114113 9.182499 0.000003 -0.000000 -0.000001 -1.824047 -0.086799 -17.711466 18.079535 10.095446 4.410164 -17.604343 15.629288 8.058828 -7.850175 0.000005 0.000001 0.000001 -0.000002 -0.000000 -23.450488 -4.154064 0.667268 24.588872 -10.281160 -3.353545 -0.260089 -15.920157 -2.443392 -0.200194 -0.000002 -0.000001 -0.000000 -0.000002 -0.000000 
0.047337 91.711227 0.090752 -2.800702 -0.941968 3.092259 -3.847998 2.014547 2.299673 1.877777 0.209558 -3.619555 0.000000 0.000000 0.000000 1.892843 0.227625 -3.610928 0.026440 -3.051733 0.011327 5.624673 4.084377 0.175621 0.000000 0.000000 0.000000 3.362986 -13.321776 -8.988035 0.000000 0.000000 0.000000 12.831976 32.035752 -77.788519 -0.000009 -37.677297 -0.000030 10.468726 5.116995 -3.597180 -6.697696 7.641065 20.056188 11.567872 23.608907 -7.393662 5.303659 8.252854 -3.166974 -0.000000 0.000000 0.000002 -0.989587 -2.601596 -15.873040 0.762407 3.154235 -27.170465 0.348200 2.165906 -18.263752 0.000000 0.000001 0.000001 -0.151403 0.693348 -18.801822 0.628219 2.878208 -24.620696 0.506934 2.597596 -22.081985 -0.000000 0.000001 0.000003 0.773647 3.361981 -19.593998 1.233936 3.938224 -34.782376 0.010616 0.382976 -3.175145 -0.000000 0.000000 0.000002 3.956800 12.642900 -18.440908 1.308768 -0.041429 -36.068993 0.763502 3.156354 -27.190336 0.000000 -0.000000 0.000001 1.454657 14.189411 8.551599 0.000000 0.000000 0.000000 54.897342 17.361581 69.904152 -0.000039 76.243079 0.000060 50.198779 36.073197 -68.237681 1.834431 4.526494 9.947623 4.621969 -8.591954 -0.228040 -8.126396 19.931219 -1.460125 -0.000000 0.000001 0.000002 8.273452 12.732383 -38.431036 0.242925 -1.825322 15.159139 0.221606 -1.744890 14.475894 0.000002 -0.000000 0.000000 3.741525 8.332704 -29.765807 0.507816 -2.612996 21.992200 2.193885 -0.004606 0.055371 -0.000002 -0.000000 -0.000000 1.464259 5.073227 -21.083616 0.128136 -1.331415 10.994422 -0.727478 -0.319093 2.366310 -0.000001 0.000001 0.000000 -3.546710 -9.728981 -19.006014 0.123515 -1.307318 10.792829 0.089097 -1.111878 9.163863 0.000001 0.000001 0.000000 -1.778304 -0.117164 -17.755732 18.053370 10.094334 4.404140 -17.628633 15.616987 8.078987 -7.939438 -0.000007 -0.000004 0.000001 0.000001 0.000000 -23.454421 -4.147522 0.646304 24.652620 -10.273591 -3.379378 -0.309896 -15.965571 -2.411220 -0.194399 -0.000005 -0.000000 0.000000 -0.000002 -0.000000 
